<?xml version="1.0" standalone="no"?>
<!DOCTYPE svg PUBLIC "-//W3C//DTD SVG 20010904//EN"
 "http://www.w3.org/TR/2001/REC-SVG-20010904/DTD/svg10.dtd">
<svg version="1.0" xmlns="http://www.w3.org/2000/svg"
 width="600.000000pt" height="600.000000pt" viewBox="0 0 600.000000 600.000000"
 preserveAspectRatio="xMidYMid meet">
<metadata>
Created by potrace 1.14, written by Peter Selinger 2001-2017
</metadata>
<g transform="translate(0.000000,600.000000) scale(0.100000,-0.100000)"
fill="#000000" stroke="none">
<path d="M3840 5870 c-72 -61 -184 -156 -248 -211 -65 -56 -167 -139 -228
-187 l-111 -86 -249 -1 c-266 -2 -358 -12 -569 -62 -594 -140 -1117 -503
-1465 -1013 -411 -604 -526 -1397 -301 -2078 131 -398 322 -704 630 -1013 198
-197 365 -324 596 -452 102 -57 293 -142 301 -135 9 9 635 1770 631 1774 -3 3
-364 -42 -803 -100 -439 -58 -799 -104 -801 -103 -1 2 173 244 389 538 870
1188 2206 3014 2335 3192 19 26 33 47 30 47 -2 0 -64 -50 -137 -110z"/>
<path d="M3729 5238 c-5 -13 -171 -428 -369 -923 -224 -562 -354 -901 -347
-903 7 -1 406 60 887 137 481 77 876 138 878 137 2 -2 -94 -131 -214 -287
-119 -156 -449 -590 -735 -964 -285 -374 -817 -1071 -1182 -1550 -365 -478
-663 -872 -661 -874 4 -5 60 38 247 192 407 334 387 322 503 307 121 -16 431
-13 569 5 474 62 902 249 1265 553 660 552 981 1411 844 2262 -120 750 -626
1434 -1324 1787 -118 60 -316 143 -339 143 -6 0 -16 -10 -22 -22z"/>
</g>
</svg>
